ffmpeg started on 2016-12-06 at 13:07:40
Report written to "Output/x264/results/ffmpeg/sintelfast15000k.log"
Command line:
Tools/ffmpeg/ffmpeg -benchmark -y -i Input/y4m/sintel.y4m -c:v libx264 -preset fast -b:v 15000k -an Output/x264/encoded/sintelfast15000k.mkv
ffmpeg version N-82227-gdb23fde Copyright (c) 2000-2016 the FFmpeg developers
  built with gcc 5.4.0 (Ubuntu 5.4.0-6ubuntu1~16.04.2) 20160609
  configuration: --prefix=/home/jaroslav/ffmpeg_build --pkg-config-flags=--static --extra-cflags=-I/home/jaroslav/ffmpeg_build/include --extra-ldflags=-L/home/jaroslav/ffmpeg_build/lib --bindir=/home/jaroslav/bin --enable-gpl --enable-libass --enable-libfdk-aac --enable-libfreetype --enable-libmp3lame --enable-libopus --enable-libtheora --enable-libvorbis --enable-libvpx --enable-libx264 --enable-libx265 --enable-nvenc --enable-libmfx --enable-libxvid --enable-libgsm --enable-libopencore-amrnb --enable-version3 --enable-nonfree
  libavutil      55. 35.100 / 55. 35.100
  libavcodec     57. 66.101 / 57. 66.101
  libavformat    57. 57.100 / 57. 57.100
  libavdevice    57.  2.100 / 57.  2.100
  libavfilter     6. 66.100 /  6. 66.100
  libswscale      4.  3.100 /  4.  3.100
  libswresample   2.  4.100 /  2.  4.100
  libpostproc    54.  2.100 / 54.  2.100
Input #0, yuv4mpegpipe, from 'Input/y4m/sintel.y4m':
  Duration: 00:00:20.83, start: 0.000000, bitrate: 2057307 kb/s
    Stream #0:0: Video: rawvideo (I420 / 0x30323449), yuv420p(progressive), 4096x1744, SAR 1:1 DAR 256:109, 24 fps, 24 tbr, 24 tbn, 24 tbc
[libx264 @ 0x2bfd1c0] using SAR=1/1
[libx264 @ 0x2bfd1c0] using cpu capabilities: MMX2 SSE2Fast SSSE3 SSE4.2 AVX FMA3 AVX2 LZCNT BMI2
[libx264 @ 0x2bfd1c0] profile High, level 5.1
[libx264 @ 0x2bfd1c0] 264 - core 148 - H.264/MPEG-4 AVC codec - Copyleft 2003-2016 - http://www.videolan.org/x264.html - options: cabac=1 ref=2 deblock=1:0:0 analyse=0x3:0x113 me=hex subme=6 psy=1 psy_rd=1.00:0.00 mixed_ref=1 me_range=16 chroma_me=1 trellis=1 8x8dct=1 cqm=0 deadzone=21,11 fast_pskip=1 chroma_qp_offset=-2 threads=6 lookahead_threads=1 sliced_threads=0 nr=0 decimate=1 interlaced=0 bluray_compat=0 constrained_intra=0 bframes=3 b_pyramid=2 b_adapt=1 b_bias=0 direct=1 weightb=1 open_gop=0 weightp=1 keyint=250 keyint_min=24 scenecut=40 intra_refresh=0 rc_lookahead=30 rc=abr mbtree=1 bitrate=15000 ratetol=1.0 qcomp=0.60 qpmin=0 qpmax=69 qpstep=4 ip_ratio=1.40 aq=1:1.00
Output #0, matroska, to 'Output/x264/encoded/sintelfast15000k.mkv':
  Metadata:
    encoder         : Lavf57.57.100
    Stream #0:0: Video: h264 (libx264) (H264 / 0x34363248), yuv420p, 4096x1744 [SAR 1:1 DAR 256:109], q=-1--1, 15000 kb/s, 24 fps, 1k tbn, 24 tbc
    Metadata:
      encoder         : Lavc57.66.101 libx264
    Side data:
      cpb: bitrate max/min/avg: 0/0/15000000 buffer size: 0 vbv_delay: -1
Stream mapping:
  Stream #0:0 -> #0:0 (rawvideo (native) -> h264 (libx264))
Press [q] to stop, [?] for help
frame=    9 fps=0.0 q=0.0 size=       0kB time=00:00:00.00 bitrate=N/A speed=   0x    frame=   18 fps= 17 q=0.0 size=       0kB time=00:00:00.00 bitrate=N/A speed=   0x    frame=   22 fps= 14 q=0.0 size=       0kB time=00:00:00.00 bitrate=N/A speed=   0x    frame=   31 fps= 15 q=0.0 size=       0kB time=00:00:00.00 bitrate=N/A speed=   0x    frame=   37 fps=9.1 q=0.0 size=       0kB time=00:00:00.00 bitrate=N/A speed=   0x    frame=   43 fps=8.7 q=22.0 size=       1kB time=00:00:00.00 bitrate=5872.0kbits/s speed=0.000203x    frame=   44 fps=5.4 q=30.0 size=       1kB time=00:00:00.04 bitrate= 136.6kbits/s speed=0.00525x    frame=   45 fps=4.2 q=25.0 size=       1kB time=00:00:00.08 bitrate=  69.9kbits/s speed=0.00776x    frame=   50 fps=4.3 q=39.0 size=       1kB time=00:00:00.29 bitrate=  20.0kbits/s speed=0.0254x    frame=   57 fps=4.7 q=39.0 size=       1kB time=00:00:00.58 bitrate=  10.1kbits/s speed=0.0477x    frame=   62 fps=4.9 q=38.0 size=       1kB time=00:00:00.79 bitrate=   7.4kbits/s speed=0.0621x    frame=   66 fps=4.9 q=38.0 size=       1kB time=00:00:00.95 bitrate=   6.1kbits/s speed=0.0716x    frame=   73 fps=5.2 q=37.0 size=       1kB time=00:00:01.25 bitrate=   4.7kbits/s speed=0.0898x    frame=   78 fps=5.4 q=36.0 size=       1kB time=00:00:01.45 bitrate=   4.0kbits/s speed= 0.1x    frame=   85 fps=5.6 q=36.0 size=    5156kB time=00:00:01.75 bitrate=24123.7kbits/s speed=0.115x    frame=   92 fps=5.8 q=35.0 size=    5156kB time=00:00:02.04 bitrate=20675.7kbits/s speed=0.129x    frame=   96 fps=5.9 q=35.0 size=    5156kB time=00:00:02.20 bitrate=19122.0kbits/s speed=0.135x    frame=  100 fps=5.9 q=35.0 size=    5156kB time=00:00:02.37 bitrate=17778.0kbits/s speed=0.141x    frame=  105 fps=6.0 q=35.0 size=    5156kB time=00:00:02.58 bitrate=16347.0kbits/s speed=0.148x    frame=  110 fps=6.1 q=34.0 size=    5156kB time=00:00:02.79 bitrate=15123.7kbits/s speed=0.155x    frame=  115 fps=6.2 q=34.0 size=    5156kB time=00:00:03.00 bitrate=14075.5kbits/s speed=0.161x    frame=  120 fps=6.3 q=34.0 size=    5156kB time=00:00:03.20 bitrate=13163.1kbits/s speed=0.167x    frame=  124 fps=6.3 q=33.0 size=    5156kB time=00:00:03.37 bitrate=12512.0kbits/s speed=0.171x    frame=  130 fps=6.4 q=33.0 size=    5156kB time=00:00:03.62 bitrate=11649.3kbits/s speed=0.178x    frame=  134 fps=6.4 q=33.0 size=    5156kB time=00:00:03.79 bitrate=11136.4kbits/s speed=0.182x    frame=  141 fps=6.5 q=33.0 size=    7841kB time=00:00:04.08 bitrate=15728.1kbits/s speed=0.188x    frame=  147 fps=6.6 q=32.0 size=    7841kB time=00:00:04.33 bitrate=14820.8kbits/s speed=0.193x    frame=  153 fps=6.7 q=32.0 size=    7841kB time=00:00:04.58 bitrate=14012.6kbits/s speed= 0.2x    frame=  160 fps=6.7 q=32.0 size=    7841kB time=00:00:04.87 bitrate=13173.4kbits/s speed=0.206x    frame=  166 fps=6.8 q=32.0 size=    7841kB time=00:00:05.12 bitrate=12530.9kbits/s speed=0.211x    frame=  169 fps=6.8 q=32.0 size=    7841kB time=00:00:05.25 bitrate=12232.6kbits/s speed=0.212x    frame=  174 fps=6.9 q=32.0 size=    7841kB time=00:00:05.45 bitrate=11766.5kbits/s speed=0.215x    frame=  179 fps=6.9 q=32.0 size=    7841kB time=00:00:05.66 bitrate=11332.7kbits/s speed=0.219x    frame=  184 fps=7.0 q=32.0 size=    7841kB time=00:00:05.87 bitrate=10931.5kbits/s speed=0.223x    frame=  190 fps=7.0 q=32.0 size=    7841kB time=00:00:06.12 bitrate=10485.4kbits/s speed=0.227x    frame=  195 fps=7.1 q=32.0 size=    7841kB time=00:00:06.33 bitrate=10141.1kbits/s speed=0.231x    frame=  200 fps=7.1 q=31.0 size=   11738kB time=00:00:06.54 bitrate=14696.3kbits/s speed=0.233x    frame=  206 fps=7.2 q=31.0 size=   11738kB time=00:00:06.79 bitrate=14155.4kbits/s speed=0.238x    frame=  211 fps=7.2 q=31.0 size=   11738kB time=00:00:07.00 bitrate=13734.9kbits/s speed=0.239x    frame=  216 fps=7.3 q=31.0 size=   11738kB time=00:00:07.20 bitrate=13338.6kbits/s speed=0.242x    frame=  221 fps=7.3 q=31.0 size=   11738kB time=00:00:07.41 bitrate=12962.8kbits/s speed=0.244x    frame=  227 fps=7.3 q=31.0 size=   13372kB time=00:00:07.66 bitrate=14285.4kbits/s speed=0.248x    frame=  231 fps=7.4 q=31.0 size=   13372kB time=00:00:07.83 bitrate=13982.7kbits/s speed=0.249x    frame=  237 fps=7.4 q=31.0 size=   13372kB time=00:00:08.08 bitrate=13550.3kbits/s speed=0.252x    frame=  243 fps=7.4 q=31.0 size=   13372kB time=00:00:08.33 bitrate=13143.8kbits/s speed=0.255x    frame=  248 fps=7.5 q=30.0 size=   13372kB time=00:00:08.54 bitrate=12822.3kbits/s speed=0.257x    frame=  254 fps=7.5 q=30.0 size=   13372kB time=00:00:08.79 bitrate=12457.7kbits/s speed=0.259x    frame=  259 fps=7.5 q=31.0 size=   13372kB time=00:00:09.00 bitrate=12169.8kbits/s speed=0.261x    frame=  263 fps=7.5 q=31.0 size=   13372kB time=00:00:09.16 bitrate=11948.1kbits/s speed=0.262x    frame=  269 fps=7.5 q=30.0 size=   13372kB time=00:00:09.41 bitrate=11631.0kbits/s speed=0.264x    frame=  275 fps=7.6 q=30.0 size=   13372kB time=00:00:09.66 bitrate=11330.2kbits/s speed=0.267x    frame=  281 fps=7.6 q=30.0 size=   13372kB time=00:00:09.91 bitrate=11044.6kbits/s speed=0.269x    frame=  288 fps=7.7 q=30.0 size=   13372kB time=00:00:10.20 bitrate=10729.8kbits/s speed=0.273x    frame=  293 fps=7.7 q=30.0 size=   13372kB time=00:00:10.41 bitrate=10514.5kbits/s speed=0.274x    frame=  300 fps=7.7 q=30.0 size=   18532kB time=00:00:10.70 bitrate=14176.4kbits/s speed=0.276x    frame=  305 fps=7.8 q=30.0 size=   18532kB time=00:00:10.91 bitrate=13905.0kbits/s speed=0.278x    frame=  311 fps=7.8 q=30.0 size=   18725kB time=00:00:11.16 bitrate=13735.0kbits/s speed=0.279x    frame=  317 fps=7.8 q=29.0 size=   18725kB time=00:00:11.41 bitrate=13434.2kbits/s speed=0.281x    frame=  324 fps=7.8 q=29.0 size=   18725kB time=00:00:11.70 bitrate=13100.4kbits/s speed=0.283x    frame=  331 fps=7.9 q=29.0 size=   18725kB time=00:00:12.00 bitrate=12781.6kbits/s speed=0.286x    frame=  334 fps=7.8 q=29.0 size=   18725kB time=00:00:12.12 bitrate=12649.9kbits/s speed=0.285x    frame=  340 fps=7.9 q=29.0 size=   18725kB time=00:00:12.37 bitrate=12394.3kbits/s speed=0.287x    frame=  345 fps=7.9 q=29.0 size=   18725kB time=00:00:12.58 bitrate=12189.5kbits/s speed=0.289x    frame=  352 fps=8.0 q=29.0 size=   18725kB time=00:00:12.87 bitrate=11913.0kbits/s speed=0.291x    frame=  358 fps=8.0 q=28.0 size=   18725kB time=00:00:13.12 bitrate=11686.1kbits/s speed=0.293x    frame=  364 fps=8.0 q=28.0 size=   18725kB time=00:00:13.37 bitrate=11467.7kbits/s speed=0.294x    frame=  372 fps=8.0 q=28.0 size=   18725kB time=00:00:13.70 bitrate=11189.2kbits/s speed=0.296x    frame=  377 fps=8.1 q=28.0 size=   18725kB time=00:00:13.91 bitrate=11021.1kbits/s speed=0.297x    frame=  383 fps=8.1 q=27.0 size=   18725kB time=00:00:14.16 bitrate=10826.7kbits/s speed=0.299x    frame=  389 fps=8.1 q=27.0 size=   18725kB time=00:00:14.41 bitrate=10638.9kbits/s speed=0.301x    frame=  392 fps=8.1 q=27.0 size=   18725kB time=00:00:14.54 bitrate=10547.5kbits/s speed= 0.3x    frame=  399 fps=8.1 q=27.0 size=   18725kB time=00:00:14.83 bitrate=10340.6kbits/s speed=0.302x    frame=  406 fps=8.1 q=27.0 size=   23666kB time=00:00:15.12 bitrate=12817.3kbits/s speed=0.303x    frame=  409 fps=8.1 q=27.0 size=   23666kB time=00:00:15.25 bitrate=12712.2kbits/s speed=0.302x    frame=  413 fps=8.1 q=27.0 size=   23666kB time=00:00:15.41 bitrate=12574.5kbits/s speed=0.302x    frame=  417 fps=8.1 q=27.0 size=   23666kB time=00:00:15.58 bitrate=12440.6kbits/s speed=0.302x    frame=  421 fps=8.1 q=27.0 size=   23666kB time=00:00:15.75 bitrate=12308.7kbits/s speed=0.302x    frame=  425 fps=8.1 q=27.0 size=   23666kB time=00:00:15.91 bitrate=12179.5kbits/s speed=0.302x    frame=  429 fps=8.1 q=27.0 size=   23666kB time=00:00:16.08 bitrate=12053.8kbits/s speed=0.303x    frame=  435 fps=8.1 q=27.0 size=   23666kB time=00:00:16.33 bitrate=11869.3kbits/s speed=0.303x    frame=  441 fps=8.1 q=27.0 size=   23666kB time=00:00:16.58 bitrate=11690.4kbits/s speed=0.304x    frame=  447 fps=8.1 q=27.0 size=   23666kB time=00:00:16.83 bitrate=11516.8kbits/s speed=0.304x    frame=  454 fps=8.1 q=24.0 size=   23666kB time=00:00:17.12 bitrate=11320.4kbits/s speed=0.307x    frame=  461 fps=8.2 q=27.0 size=   28144kB time=00:00:17.41 bitrate=13236.8kbits/s speed=0.309x    frame=  464 fps=8.1 q=27.0 size=   28144kB time=00:00:17.54 bitrate=13142.5kbits/s speed=0.308x    frame=  470 fps=8.2 q=27.0 size=   28144kB time=00:00:17.79 bitrate=12957.8kbits/s speed=0.31x    frame=  476 fps=8.2 q=27.0 size=   28144kB time=00:00:18.04 bitrate=12778.3kbits/s speed=0.311x    frame=  481 fps=8.2 q=27.0 size=   28144kB time=00:00:18.25 bitrate=12632.6kbits/s speed=0.312x    frame=  488 fps=8.2 q=27.0 size=   28144kB time=00:00:18.54 bitrate=12433.7kbits/s speed=0.313x    frame=  495 fps=8.3 q=27.0 size=   28144kB time=00:00:18.83 bitrate=12241.6kbits/s speed=0.315x    frame=  500 fps=8.3 q=27.0 size=   28144kB time=00:00:19.04 bitrate=12107.2kbits/s speed=0.315x    frame=  500 fps=7.9 q=-1.0 Lsize=   34649kB time=00:00:20.70 bitrate=13706.3kbits/s speed=0.327x    
video:34644kB audio:0kB subtitle:0kB other streams:0kB global headers:0kB muxing overhead: 0.014354%
bench: utime=197.328s
bench: maxrss=1331608kB
[libx264 @ 0x2bfd1c0] frame I:8     Avg QP:21.31  size:226460
[libx264 @ 0x2bfd1c0] frame P:269   Avg QP:26.63  size: 80843
[libx264 @ 0x2bfd1c0] frame B:223   Avg QP:24.23  size: 53437
[libx264 @ 0x2bfd1c0] consecutive B-frames: 37.0%  8.4%  6.6% 48.0%
[libx264 @ 0x2bfd1c0] mb I  I16..4: 17.4% 75.1%  7.5%
[libx264 @ 0x2bfd1c0] mb P  I16..4: 16.7% 25.5%  0.8%  P16..4: 29.3%  5.0%  1.7%  0.0%  0.0%    skip:21.0%
[libx264 @ 0x2bfd1c0] mb B  I16..4:  6.7%  7.9%  1.0%  B16..8: 21.9%  4.4%  0.2%  direct:12.5%  skip:45.4%  L0:44.0% L1:48.5% BI: 7.5%
[libx264 @ 0x2bfd1c0] final ratefactor: 23.69
[libx264 @ 0x2bfd1c0] 8x8 transform intra:58.3% inter:81.4%
[libx264 @ 0x2bfd1c0] coded y,uvDC,uvAC intra: 25.3% 33.4% 4.5% inter: 12.4% 14.7% 0.2%
[libx264 @ 0x2bfd1c0] i16 v,h,dc,p: 29% 28% 10% 34%
[libx264 @ 0x2bfd1c0] i8 v,h,dc,ddl,ddr,vr,hd,vl,hu: 24% 21% 27%  5%  5%  5%  6%  4%  5%
[libx264 @ 0x2bfd1c0] i4 v,h,dc,ddl,ddr,vr,hd,vl,hu: 19% 23% 10%  7% 10%  8% 11%  5%  8%
[libx264 @ 0x2bfd1c0] i8c dc,h,v,p: 64% 17% 16%  3%
[libx264 @ 0x2bfd1c0] Weighted P-Frames: Y:0.7% UV:0.0%
[libx264 @ 0x2bfd1c0] ref P L0: 85.8% 14.2%
[libx264 @ 0x2bfd1c0] ref B L0: 87.5% 12.5%
[libx264 @ 0x2bfd1c0] ref B L1: 96.9%  3.1%
[libx264 @ 0x2bfd1c0] kb/s:13622.30
